<?xml version="1.0" encoding="utf-8"?>
<!-- Svg Vector Icons : http://www.onlinewebfonts.com/icon -->
<!DOCTYPE svg PUBLIC "-//W3C//DTD SVG 1.1//EN" "http://www.w3.org/Graphics/SVG/1.1/DTD/svg11.dtd">
<svg style="fill:white" version="1.1" xmlns="http://www.w3.org/2000/svg" xmlns:xlink="http://www.w3.org/1999/xlink" x="0px" y="0px" viewBox="0 0 1000 1000" enable-background="new 0 0 1000 1000" xml:space="preserve">
<metadata> Svg Vector Icons : http://www.onlinewebfonts.com/icon </metadata>
<g><path d="M561.1,96.7l-390,401.8l386,401.8c15.8,15.8,15.8,51.2,0,74.8c-15.8,15.8-51.2,23.6-74.8,0L49,514.2l0,0c-7.9-7.9-7.9-7.9-7.9-15.8c0-7.9,0-15.8,7.9-15.8l0,0L486.2,21.8c15.8-15.8,51.2-15.8,74.8,0C576.8,37.6,576.8,73,561.1,96.7L561.1,96.7z"/><path d="M427.1,514.2L427.1,514.2c-7.9,0-7.9-7.9-7.9-15.8c0-7.9,0-15.8,7.9-15.8l0,0L872.2,21.8c15.8-15.8,51.2-15.8,74.8,0c15.8,15.8,15.8,51.2,0,74.8L553.2,498.5l386,401.8c15.8,15.8,15.8,51.2,0,74.8c-15.8,15.8-51.2,23.6-74.8,0L427.1,514.2L427.1,514.2z"/></g>
</svg>